<?xml version="1.0" encoding="UTF-8"?>
<svg xmlns="http://www.w3.org/2000/svg" xmlns:xlink="http://www.w3.org/1999/xlink" width="150px" height="65px" viewBox="0 0 150 65" version="1.1">
<g id="surface1">
<path style=" stroke:none;fill-rule:nonzero;fill:rgb(100%,100%,100%);fill-opacity:1;" d="M 103.9375 65.296875 C 69.304688 65.296875 34.816406 65.296875 0.3125 65.296875 C 0.3125 43.648438 0.3125 22 0.3125 0.324219 C 50.257812 0.324219 100.222656 0.324219 150.242188 0.324219 C 150.242188 21.960938 150.242188 43.628906 150.242188 65.296875 C 134.882812 65.296875 119.484375 65.296875 103.9375 65.296875 M 60.441406 29.558594 C 59.996094 26.929688 58.726562 24.742188 56.023438 24.269531 C 53.320312 23.796875 50.511719 23.945312 47.734375 23.824219 C 47.734375 28.640625 47.734375 33.140625 47.734375 37.71875 C 50.121094 37.71875 52.417969 37.785156 54.710938 37.6875 C 55.558594 37.648438 56.457031 37.359375 57.222656 36.964844 C 60.160156 35.457031 60.632812 32.765625 60.441406 29.558594 M 41.371094 25.261719 C 41.371094 23.367188 41.371094 21.46875 41.371094 19.59375 C 31.113281 19.59375 21.066406 19.59375 11.03125 19.59375 C 11.03125 27.085938 11.03125 34.484375 11.03125 41.859375 C 21.183594 41.859375 31.230469 41.859375 41.371094 41.859375 C 41.371094 36.363281 41.371094 30.960938 41.371094 25.261719 M 108.070312 26.5 C 107.269531 24.984375 105.96875 24.097656 104.308594 24.011719 C 101.964844 23.890625 99.613281 23.980469 97.238281 23.980469 C 97.238281 28.597656 97.238281 33.140625 97.238281 37.699219 C 98.398438 37.699219 99.457031 37.699219 100.671875 37.699219 C 100.671875 36.234375 100.671875 34.832031 100.671875 33.453125 C 103.132812 33.214844 103.132812 33.210938 104.195312 35.1875 C 104.335938 35.445312 104.46875 35.710938 104.609375 35.96875 C 105.714844 37.996094 106.269531 38.210938 108.757812 37.503906 C 107.910156 35.898438 107.074219 34.304688 106.238281 32.71875 C 108.390625 31.128906 109.046875 29.152344 108.070312 26.5 M 63.398438 29.015625 C 61.738281 31.011719 61.476562 33.285156 62.691406 35.246094 C 63.890625 37.183594 66.195312 38.085938 68.578125 37.5625 C 68.933594 37.484375 69.308594 37.367188 69.65625 37.414062 C 70.5625 37.535156 71.457031 37.734375 72.433594 37.914062 C 72.433594 34.285156 72.433594 30.9375 72.433594 27.484375 C 71.160156 27.546875 69.980469 27.828125 68.898438 27.609375 C 66.867188 27.203125 65.113281 27.496094 63.398438 29.015625 M 116.726562 36.402344 C 117.269531 36.730469 117.789062 37.285156 118.359375 37.34375 C 120.6875 37.582031 123.035156 37.664062 125.410156 37.808594 C 125.410156 34.28125 125.410156 30.929688 125.410156 27.582031 C 124.09375 27.582031 122.867188 27.753906 121.707031 27.546875 C 119.191406 27.097656 116.796875 27.996094 115.609375 30.066406 C 114.445312 32.089844 114.773438 34.238281 116.726562 36.402344 M 126.957031 36.433594 C 126.984375 36.859375 127.015625 37.28125 127.042969 37.667969 C 128.019531 37.667969 128.875 37.667969 129.832031 37.667969 C 129.832031 35.992188 129.746094 34.421875 129.871094 32.863281 C 129.925781 32.148438 130.203125 31.191406 130.71875 30.832031 C 131.34375 30.394531 132.519531 30.113281 133.109375 30.425781 C 133.824219 30.800781 134.507812 31.820312 134.621094 32.644531 C 134.851562 34.304688 134.691406 36.023438 134.691406 37.664062 C 135.824219 37.664062 136.679688 37.664062 137.597656 37.664062 C 137.597656 37.117188 137.597656 36.675781 137.597656 36.238281 C 137.59375 34.960938 137.640625 33.679688 137.578125 32.402344 C 137.449219 29.941406 135.40625 27.636719 133.085938 27.492188 C 131.085938 27.363281 129.070312 27.464844 126.957031 27.464844 C 126.957031 30.464844 126.957031 33.308594 126.957031 36.433594 M 76.414062 33.628906 C 76.832031 34.675781 77.292969 35.710938 77.648438 36.777344 C 77.910156 37.554688 78.34375 37.742188 79.148438 37.820312 C 80.46875 37.945312 81.078125 37.4375 81.480469 36.234375 C 82.019531 34.609375 82.734375 33.039062 83.375 31.449219 C 83.878906 30.191406 84.382812 28.933594 84.933594 27.5625 C 83.773438 27.5625 82.84375 27.5625 81.835938 27.5625 C 81.089844 29.472656 80.335938 31.398438 79.433594 33.703125 C 78.65625 31.675781 78.0625 30.035156 77.386719 28.429688 C 77.230469 28.0625 76.808594 27.625 76.449219 27.558594 C 75.707031 27.425781 74.925781 27.519531 73.941406 27.519531 C 74.785156 29.628906 75.546875 31.527344 76.414062 33.628906 M 88.117188 37.777344 C 88.535156 37.746094 88.953125 37.710938 89.335938 37.679688 C 89.335938 34.207031 89.335938 30.886719 89.335938 27.535156 C 88.382812 27.535156 87.519531 27.535156 86.613281 27.535156 C 86.613281 30.953125 86.613281 34.308594 86.613281 37.777344 C 87.082031 37.777344 87.464844 37.777344 88.117188 37.777344 M 110.492188 27.730469 C 110.492188 31.050781 110.492188 34.367188 110.492188 37.6875 C 111.527344 37.6875 112.386719 37.6875 113.265625 37.6875 C 113.265625 34.242188 113.265625 30.886719 113.265625 27.523438 C 112.335938 27.523438 111.503906 27.523438 110.492188 27.730469 M 86.441406 25.128906 C 86.753906 25.769531 86.941406 26.546875 87.433594 26.992188 C 87.6875 27.21875 88.671875 27.019531 88.980469 26.691406 C 89.335938 26.308594 89.546875 25.507812 89.410156 25 C 89.035156 23.621094 87.601562 23.609375 86.441406 25.128906 M 113.441406 25.980469 C 113.125 25.332031 112.933594 24.554688 112.441406 24.09375 C 112.203125 23.871094 111.214844 24.066406 110.910156 24.394531 C 110.550781 24.78125 110.382812 25.546875 110.484375 26.085938 C 110.558594 26.484375 111.226562 27.097656 111.5625 27.054688 C 112.199219 26.980469 112.78125 26.5 113.441406 25.980469 Z M 113.441406 25.980469 "/>
<path style=" stroke:none;fill-rule:nonzero;fill:rgb(34.117647%,9.803922%,40.392157%);fill-opacity:1;" d="M 60.460938 29.6875 C 60.632812 32.765625 60.160156 35.457031 57.222656 36.964844 C 56.457031 37.359375 55.558594 37.648438 54.710938 37.6875 C 52.417969 37.785156 50.121094 37.71875 47.734375 37.71875 C 47.734375 33.140625 47.734375 28.640625 47.734375 23.824219 C 50.511719 23.945312 53.320312 23.796875 56.023438 24.269531 C 58.726562 24.742188 59.996094 26.929688 60.460938 29.6875 M 54.574219 34.257812 C 56.511719 33.546875 57.363281 31.886719 56.851562 29.8125 C 56.316406 27.648438 54.757812 27.019531 51.273438 27.582031 C 51.273438 29.796875 51.273438 32.019531 51.273438 34.28125 C 52.363281 34.28125 53.339844 34.28125 54.574219 34.257812 Z M 54.574219 34.257812 "/>
<path style=" stroke:none;fill-rule:nonzero;fill:rgb(40%,22.352941%,65.098039%);fill-opacity:1;" d="M 41.371094 25.410156 C 41.371094 30.960938 41.371094 36.363281 41.371094 41.859375 C 31.230469 41.859375 21.183594 41.859375 11.03125 41.859375 C 11.03125 34.484375 11.03125 27.085938 11.03125 19.59375 C 21.066406 19.59375 31.113281 19.59375 41.371094 19.59375 C 41.371094 21.46875 41.371094 23.367188 41.371094 25.410156 M 40.148438 34.714844 C 40.148438 30.105469 40.148438 25.496094 40.148438 20.832031 C 30.75 20.832031 21.496094 20.832031 12.25 20.832031 C 12.25 27.496094 12.25 34.058594 12.25 40.648438 C 21.558594 40.648438 30.78125 40.648438 40.148438 40.648438 C 40.148438 38.722656 40.148438 36.867188 40.148438 34.714844 Z M 40.148438 34.714844 "/>
<path style=" stroke:none;fill-rule:nonzero;fill:rgb(33.72549%,9.019608%,39.607843%);fill-opacity:1;" d="M 108.121094 26.601562 C 109.046875 29.152344 108.390625 31.128906 106.238281 32.71875 C 107.074219 34.304688 107.910156 35.898438 108.757812 37.503906 C 106.269531 38.210938 105.714844 37.996094 104.609375 35.96875 C 104.46875 35.710938 104.335938 35.445312 104.195312 35.1875 C 103.132812 33.210938 103.132812 33.214844 100.671875 33.453125 C 100.671875 34.832031 100.671875 36.234375 100.671875 37.699219 C 99.457031 37.699219 98.398438 37.699219 97.238281 37.699219 C 97.238281 33.140625 97.238281 28.597656 97.238281 23.980469 C 99.613281 23.980469 101.964844 23.890625 104.308594 24.011719 C 105.96875 24.097656 107.269531 24.984375 108.121094 26.601562 M 105.003906 28.769531 C 104.667969 26.847656 103.929688 26.535156 100.765625 26.984375 C 100.765625 28.128906 100.765625 29.273438 100.765625 30.460938 C 101.601562 30.460938 102.332031 30.472656 103.066406 30.457031 C 104.054688 30.4375 104.78125 30.0625 105.003906 28.769531 Z M 105.003906 28.769531 "/>
<path style=" stroke:none;fill-rule:nonzero;fill:rgb(34.509804%,10.196078%,40.392157%);fill-opacity:1;" d="M 63.476562 28.9375 C 65.113281 27.496094 66.867188 27.203125 68.898438 27.609375 C 69.980469 27.828125 71.160156 27.546875 72.433594 27.484375 C 72.433594 30.9375 72.433594 34.285156 72.433594 37.914062 C 71.457031 37.734375 70.5625 37.535156 69.65625 37.414062 C 69.308594 37.367188 68.933594 37.484375 68.578125 37.5625 C 66.195312 38.085938 63.890625 37.183594 62.691406 35.246094 C 61.476562 33.285156 61.738281 31.011719 63.476562 28.9375 M 67.429688 30.15625 C 65.492188 30.410156 64.464844 31.554688 64.84375 33.082031 C 65.152344 34.3125 65.980469 35.011719 67.238281 35.074219 C 68.390625 35.128906 69.503906 34.09375 69.671875 32.941406 C 69.863281 31.613281 69.226562 30.738281 67.429688 30.15625 Z M 67.429688 30.15625 "/>
<path style=" stroke:none;fill-rule:nonzero;fill:rgb(33.72549%,9.411765%,40%);fill-opacity:1;" d="M 116.644531 36.335938 C 114.773438 34.238281 114.445312 32.089844 115.609375 30.066406 C 116.796875 27.996094 119.191406 27.097656 121.707031 27.546875 C 122.867188 27.753906 124.09375 27.582031 125.410156 27.582031 C 125.410156 30.929688 125.410156 34.28125 125.410156 37.808594 C 123.035156 37.664062 120.6875 37.582031 118.359375 37.34375 C 117.789062 37.285156 117.269531 36.730469 116.644531 36.335938 M 117.808594 32.394531 C 117.992188 34.160156 119.058594 35.230469 120.46875 35.0625 C 121.929688 34.886719 122.914062 33.574219 122.636719 32.101562 C 122.417969 30.949219 121.6875 30.257812 120.527344 30.179688 C 119.117188 30.085938 118.195312 30.777344 117.808594 32.394531 Z M 117.808594 32.394531 "/>
<path style=" stroke:none;fill-rule:nonzero;fill:rgb(34.117647%,9.803922%,40.392157%);fill-opacity:1;" d="M 126.957031 36.292969 C 126.957031 33.308594 126.957031 30.464844 126.957031 27.464844 C 129.070312 27.464844 131.085938 27.363281 133.085938 27.492188 C 135.40625 27.636719 137.449219 29.941406 137.578125 32.402344 C 137.640625 33.679688 137.59375 34.960938 137.597656 36.238281 C 137.597656 36.675781 137.597656 37.117188 137.597656 37.664062 C 136.679688 37.664062 135.824219 37.664062 134.691406 37.664062 C 134.691406 36.023438 134.851562 34.304688 134.621094 32.644531 C 134.507812 31.820312 133.824219 30.800781 133.109375 30.425781 C 132.519531 30.113281 131.34375 30.394531 130.71875 30.832031 C 130.203125 31.191406 129.925781 32.148438 129.871094 32.863281 C 129.746094 34.421875 129.832031 35.992188 129.832031 37.667969 C 128.875 37.667969 128.019531 37.667969 127.042969 37.667969 C 127.015625 37.28125 126.984375 36.859375 126.957031 36.292969 Z M 126.957031 36.292969 "/>
<path style=" stroke:none;fill-rule:nonzero;fill:rgb(34.509804%,10.196078%,40.392157%);fill-opacity:1;" d="M 76.363281 33.527344 C 75.546875 31.527344 74.785156 29.628906 73.941406 27.519531 C 74.925781 27.519531 75.707031 27.425781 76.449219 27.558594 C 76.808594 27.625 77.230469 28.0625 77.386719 28.429688 C 78.0625 30.035156 78.65625 31.675781 79.433594 33.703125 C 80.335938 31.398438 81.089844 29.472656 81.835938 27.5625 C 82.84375 27.5625 83.773438 27.5625 84.933594 27.5625 C 84.382812 28.933594 83.878906 30.191406 83.375 31.449219 C 82.734375 33.039062 82.019531 34.609375 81.480469 36.234375 C 81.078125 37.4375 80.46875 37.945312 79.148438 37.820312 C 78.34375 37.742188 77.910156 37.554688 77.648438 36.777344 C 77.292969 35.710938 76.832031 34.675781 76.363281 33.527344 Z M 76.363281 33.527344 "/>
<path style=" stroke:none;fill-rule:nonzero;fill:rgb(34.901961%,10.980392%,41.176471%);fill-opacity:1;" d="M 87.984375 37.777344 C 87.464844 37.777344 87.082031 37.777344 86.613281 37.777344 C 86.613281 34.308594 86.613281 30.953125 86.613281 27.535156 C 87.519531 27.535156 88.382812 27.535156 89.335938 27.535156 C 89.335938 30.886719 89.335938 34.207031 89.335938 37.679688 C 88.953125 37.710938 88.535156 37.746094 87.984375 37.777344 Z M 87.984375 37.777344 "/>
<path style=" stroke:none;fill-rule:nonzero;fill:rgb(34.901961%,10.980392%,41.176471%);fill-opacity:1;" d="M 110.585938 27.628906 C 111.503906 27.523438 112.335938 27.523438 113.265625 27.523438 C 113.265625 30.886719 113.265625 34.242188 113.265625 37.6875 C 112.386719 37.6875 111.527344 37.6875 110.492188 37.6875 C 110.492188 34.367188 110.492188 31.050781 110.585938 27.628906 Z M 110.585938 27.628906 "/>
<path style=" stroke:none;fill-rule:nonzero;fill:rgb(35.294118%,11.764706%,41.568627%);fill-opacity:1;" d="M 86.46875 25.023438 C 87.601562 23.609375 89.035156 23.621094 89.410156 25 C 89.546875 25.507812 89.335938 26.308594 88.980469 26.691406 C 88.671875 27.019531 87.6875 27.21875 87.433594 26.992188 C 86.941406 26.546875 86.753906 25.769531 86.46875 25.023438 Z M 86.46875 25.023438 "/>
<path style=" stroke:none;fill-rule:nonzero;fill:rgb(35.686275%,11.764706%,41.568627%);fill-opacity:1;" d="M 113.414062 26.082031 C 112.78125 26.5 112.199219 26.980469 111.5625 27.054688 C 111.226562 27.097656 110.558594 26.484375 110.484375 26.085938 C 110.382812 25.546875 110.550781 24.78125 110.910156 24.394531 C 111.214844 24.066406 112.203125 23.871094 112.441406 24.09375 C 112.933594 24.554688 113.125 25.332031 113.414062 26.082031 Z M 113.414062 26.082031 "/>
<path style=" stroke:none;fill-rule:nonzero;fill:rgb(98.039216%,97.254902%,98.039216%);fill-opacity:1;" d="M 54.445312 34.269531 C 53.339844 34.28125 52.363281 34.28125 51.273438 34.28125 C 51.273438 32.019531 51.273438 29.796875 51.273438 27.582031 C 54.757812 27.019531 56.316406 27.648438 56.851562 29.8125 C 57.363281 31.886719 56.511719 33.546875 54.445312 34.269531 Z M 54.445312 34.269531 "/>
<path style=" stroke:none;fill-rule:nonzero;fill:rgb(98.823529%,98.431373%,99.215686%);fill-opacity:1;" d="M 40.148438 34.863281 C 40.148438 36.867188 40.148438 38.722656 40.148438 40.648438 C 30.78125 40.648438 21.558594 40.648438 12.25 40.648438 C 12.25 34.058594 12.25 27.496094 12.25 20.832031 C 21.496094 20.832031 30.75 20.832031 40.148438 20.832031 C 40.148438 25.496094 40.148438 30.105469 40.148438 34.863281 M 26.195312 29.3125 C 23.996094 31.523438 21.800781 33.734375 19.816406 35.730469 C 20.265625 36.398438 20.585938 36.878906 20.746094 37.117188 C 24.8125 33.136719 28.800781 29.234375 32.667969 25.449219 C 32.335938 24.933594 32 24.414062 31.636719 23.855469 C 29.738281 25.761719 28.039062 27.460938 26.195312 29.3125 M 17.792969 32.277344 C 18.140625 32.746094 18.488281 33.21875 18.914062 33.792969 C 19.601562 33.070312 20.03125 32.621094 20.480469 32.148438 C 20.027344 31.59375 19.632812 31.117188 19.230469 30.621094 C 20.070312 29.722656 20.851562 28.886719 21.667969 28.011719 C 21.128906 27.507812 20.714844 27.117188 20.34375 26.769531 C 18.957031 28.128906 17.679688 29.386719 16.324219 30.714844 C 16.78125 31.203125 17.210938 31.664062 17.792969 32.277344 M 32.125 31.96875 C 31.632812 32.296875 31.140625 32.621094 30.644531 32.945312 C 30.804688 33.019531 30.964844 33.09375 31.125 33.167969 C 31.484375 33.675781 31.84375 34.1875 32.039062 34.464844 C 33.488281 33.148438 34.828125 31.933594 36.019531 30.855469 C 35.0625 29.820312 34.183594 28.867188 33.363281 27.980469 C 32.886719 28.339844 32.429688 28.683594 31.933594 29.058594 C 32.5 29.699219 32.910156 30.160156 33.351562 30.660156 C 32.941406 31.101562 32.609375 31.457031 32.125 31.96875 Z M 32.125 31.96875 "/>
<path style=" stroke:none;fill-rule:nonzero;fill:rgb(99.215686%,98.823529%,99.215686%);fill-opacity:1;" d="M 104.984375 28.878906 C 104.78125 30.0625 104.054688 30.4375 103.066406 30.457031 C 102.332031 30.472656 101.601562 30.460938 100.765625 30.460938 C 100.765625 29.273438 100.765625 28.128906 100.765625 26.984375 C 103.929688 26.535156 104.667969 26.847656 104.984375 28.878906 Z M 104.984375 28.878906 "/>
<path style=" stroke:none;fill-rule:nonzero;fill:rgb(97.647059%,96.862745%,97.647059%);fill-opacity:1;" d="M 67.546875 30.167969 C 69.226562 30.738281 69.863281 31.613281 69.671875 32.941406 C 69.503906 34.09375 68.390625 35.128906 67.238281 35.074219 C 65.980469 35.011719 65.152344 34.3125 64.84375 33.082031 C 64.464844 31.554688 65.492188 30.410156 67.546875 30.167969 Z M 67.546875 30.167969 "/>
<path style=" stroke:none;fill-rule:nonzero;fill:rgb(98.431373%,97.647059%,98.431373%);fill-opacity:1;" d="M 117.816406 32.277344 C 118.195312 30.777344 119.117188 30.085938 120.527344 30.179688 C 121.6875 30.257812 122.417969 30.949219 122.636719 32.101562 C 122.914062 33.574219 121.929688 34.886719 120.46875 35.0625 C 119.058594 35.230469 117.992188 34.160156 117.816406 32.277344 Z M 117.816406 32.277344 "/>
<path style=" stroke:none;fill-rule:nonzero;fill:rgb(42.352941%,25.098039%,66.27451%);fill-opacity:1;" d="M 26.265625 29.238281 C 28.039062 27.460938 29.738281 25.761719 31.636719 23.855469 C 32 24.414062 32.335938 24.933594 32.667969 25.449219 C 28.800781 29.234375 24.8125 33.136719 20.746094 37.117188 C 20.585938 36.878906 20.265625 36.398438 19.816406 35.730469 C 21.800781 33.734375 23.996094 31.523438 26.265625 29.238281 Z M 26.265625 29.238281 "/>
<path style=" stroke:none;fill-rule:nonzero;fill:rgb(43.137255%,26.27451%,66.666667%);fill-opacity:1;" d="M 17.714844 32.199219 C 17.210938 31.664062 16.78125 31.203125 16.324219 30.714844 C 17.679688 29.386719 18.957031 28.128906 20.34375 26.769531 C 20.714844 27.117188 21.128906 27.507812 21.667969 28.011719 C 20.851562 28.886719 20.070312 29.722656 19.230469 30.621094 C 19.632812 31.117188 20.027344 31.59375 20.480469 32.148438 C 20.03125 32.621094 19.601562 33.070312 18.914062 33.792969 C 18.488281 33.21875 18.140625 32.746094 17.714844 32.199219 Z M 17.714844 32.199219 "/>
<path style=" stroke:none;fill-rule:nonzero;fill:rgb(43.529412%,27.058824%,67.058824%);fill-opacity:1;" d="M 32.203125 31.890625 C 32.609375 31.457031 32.941406 31.101562 33.351562 30.660156 C 32.910156 30.160156 32.5 29.699219 31.933594 29.058594 C 32.429688 28.683594 32.886719 28.339844 33.363281 27.980469 C 34.183594 28.867188 35.0625 29.820312 36.019531 30.855469 C 34.828125 31.933594 33.488281 33.148438 32.039062 34.464844 C 31.84375 34.1875 31.484375 33.675781 31.125 33.167969 C 30.964844 33.09375 30.804688 33.019531 30.644531 32.945312 C 31.140625 32.621094 31.632812 32.296875 32.203125 31.890625 Z M 32.203125 31.890625 "/>
</g>
</svg>
